<svg focusable="false" xmlns="http://www.w3.org/2000/svg" viewBox="23.9 37.5 32.1 4.9">
				<path d="M 50.5 41.2 l -0.1 -3.5 h 1.1 v 4.5 h -1.6 l -1.1 -3.7 h -0.1 l 0.1 3.7 h -1.1 v -4.5 h 1.7 l 1 3.5 Z m -20.7 -3.1 l -0.6 4.1 H 28 l 0.8 -4.5 h 2.1 l 0.8 4.5 h -1.2 l -0.6 -4.1 Z m 5.4 3.1 l 0.5 -3.5 h 1.9 l 0.1 4.5 h -1.1 l -0.1 -4.1 l -0.7 4.1 h -1.2 l -0.8 -4.1 v 4.1 h -1.2 l 0.1 -4.5 h 1.9 l 0.6 3.5 Z M 26 41 v 0.3 c 0 0.2 -0.1 0.3 -0.5 0.3 c -0.3 0 -0.5 -0.2 -0.5 -0.4 v -0.5 h -1.2 v 0.3 c 0 1 0.8 1.3 1.7 1.3 c 0.8 0 1.5 -0.3 1.6 -1 v -0.8 c -0.2 -1 -1.9 -1.2 -2.1 -1.8 v -0.2 c 0 -0.1 0.1 -0.3 0.4 -0.3 s 0.4 0.2 0.4 0.4 v 0.3 h 1.1 v -0.3 c 0 -1 -0.9 -1.1 -1.5 -1.1 c -0.8 0 -1.5 0.3 -1.6 1 v 0.6 c 0.4 1 2 1.2 2.2 1.9 Z m 14.9 -0.1 v 0.3 c 0 0.1 -0.1 0.3 -0.4 0.3 c -0.3 0 -0.5 -0.2 -0.5 -0.4 v -0.4 h -1.2 v 0.3 c 0 1 0.8 1.3 1.7 1.3 c 0.8 0 1.5 -0.3 1.6 -1 v -0.8 c -0.2 -1 -1.9 -1.2 -2 -1.8 v -0.2 c 0 -0.2 0.1 -0.3 0.4 -0.3 c 0.3 0 0.4 0.2 0.4 0.4 v 0.3 H 42 v -0.3 c 0 -1 -0.9 -1.1 -1.5 -1.1 c -0.8 0 -1.5 0.3 -1.6 1 v 0.6 c 0.2 1 1.8 1.2 2 1.8 Z m 3.9 0.6 c 0.3 0 0.4 -0.2 0.4 -0.3 v -3.6 h 1.2 v 3.6 c -0.1 0.8 -0.8 1.1 -1.6 1.1 s -1.5 -0.3 -1.6 -1.1 v -3.6 h 1.2 v 3.6 c 0 0.1 0.1 0.3 0.4 0.3 Z m 9.5 0 c 0.3 0 0.5 -0.2 0.5 -0.3 v -0.9 h -0.5 v -0.7 H 56 v 1.5 c -0.1 0.8 -0.8 1.1 -1.6 1.1 s -1.5 -0.3 -1.6 -1.1 v -2.4 c 0.1 -0.9 0.8 -1.1 1.6 -1.1 s 1.5 0.3 1.6 1.1 v 0.5 h -1.2 v -0.5 c 0 -0.1 -0.1 -0.3 -0.5 -0.3 c -0.3 0 -0.4 0.2 -0.5 0.3 v 2.5 c 0.1 0.1 0.2 0.3 0.5 0.3 Z"/><rect class="btn" fill="transparent" width="100%" height="100%"/></svg>